<svg xmlns="http://www.w3.org/2000/svg" width="300" height="423" viewBox="0 0 300 423">
  <rect x="0" y="0" width="300" height="423" fill="#ffffff" rx="15" ry="15" />
  <rect x="10" y="10" width="280" height="403" fill="none" stroke="#DC143C" stroke-width="3" rx="10" ry="10" />
  <text x="150" y="50" font-family="Georgia, serif" font-size="24" font-weight="bold" fill="#DC143C" text-anchor="middle" id="role">Chaperon Rouge</text>
  <text x="150" y="70" font-family="Arial, sans-serif" font-size="12" font-style="italic" fill="#555" text-anchor="middle" id="origine">Wolfy</text>

  <g transform="translate(90, 120)">
    
    <path d="M35 15 Q35 -5 60 -5 Q85 -5 85 15" fill="#DC143C" stroke="#8B0000" stroke-width="2" />
    <ellipse cx="60" cy="15" rx="25" ry="20" fill="#DC143C" stroke="#8B0000" stroke-width="2" />
    
    
    <ellipse cx="60" cy="20" rx="15" ry="18" fill="#FFE4C4" stroke="none" />


    <path d="M40 35 L35 80 Q35 85 40 85 L80 85 Q85 85 85 80 L80 35 Z" fill="#DC143C" stroke="#8B0000" stroke-width="2" />
    
    
    <rect x="0" y="50" width="25" height="20" fill="#8B4513" stroke="#654321" stroke-width="2" rx="2" />
    <path d="M2 50 Q12.5 40 23 50" fill="none" stroke="#654321" stroke-width="2" />
  </g>

  <text x="150" y="270" font-family="Georgia, serif" font-size="13" fill="#333" text-anchor="middle" id="descText">
    <tspan x="150" dy="0" font-weight="bold">But : <tspan font-weight="normal">Survivre avec le village.</tspan></tspan>
    <tspan x="150" dy="24">Tant que le Chasseur est en vie,</tspan>
    <tspan x="150" dy="17">elle est protégée contre les</tspan>
    <tspan x="150" dy="17">attaques des Loups-Garous.</tspan>
  </text>
<text id="campTypique" x="18" y="406" font-family="Arial, sans-serif" font-size="12" fill="#555" text-anchor="start">Village</text><text id="balance" x="282" y="406" font-family="Arial, sans-serif" font-size="12" fill="#555" text-anchor="end">+2</text></svg>
