<svg xmlns="http://www.w3.org/2000/svg" width="300" height="423" viewBox="0 0 300 423">
  <rect x="0" y="0" width="300" height="423" fill="#ffffff" rx="15" ry="15" />
  <rect x="10" y="10" width="280" height="403" fill="none" stroke="#5A3E2B" stroke-width="3" rx="10" ry="10" />

  <text x="150" y="50" font-family="Georgia, serif" font-size="24" font-weight="bold" fill="#5A3E2B" text-anchor="middle" id="role">Fossoyeur</text>
  <text x="150" y="70" font-family="Arial, sans-serif" font-size="12" font-style="italic" fill="#555" text-anchor="middle" id="origine">Wolfy</text>

  
  <g transform="translate(95, 110)">
    
    <path d="M25 95 L25 60 Q25 25 55 25 Q85 25 85 60 L85 95 Z" fill="#DCDCDC" stroke="#5A3E2B" stroke-width="2" />
    <rect x="38" y="55" width="34" height="8" fill="#5A3E2B" opacity="0.7" />
    <rect x="46" y="65" width="18" height="6" fill="#5A3E2B" opacity="0.5" />

    
    <g transform="rotate(-20 95 55)">
      <rect x="92" y="15" width="6" height="80" rx="3" fill="#8B4513" />
      <path d="M82 85 Q95 105 108 85 L108 80 L82 80 Z" fill="#B0B0B0" stroke="#5A3E2B" stroke-width="1" />
      <rect x="89" y="18" width="12" height="10" rx="5" fill="#8B4513" opacity="0.9" />
    </g>
  </g>

  <text x="150" y="270" font-family="Georgia, serif" font-size="13" fill="#333" text-anchor="middle" id="descText">
    <tspan x="150" dy="0" font-weight="bold">But : <tspan font-weight="normal">Démasquer un loup.</tspan></tspan>
    <tspan x="150" dy="20">A la mort du Fossoyeur, le Meneur de</tspan>
    <tspan x="150" dy="17">Jeu donne deux noms de joueurs dont</tspan>
    <tspan x="150" dy="17">l'un est un loup-garou. Il ne donne</tspan>
    <tspan x="150" dy="17">pas leur rôle de manière à laisser</tspan>
    <tspan x="150" dy="17">couler l'incertitude entre les deux</tspan>
    <tspan x="150" dy="17">joueurs.</tspan>
  </text>
<text id="campTypique" x="18" y="406" font-family="Arial, sans-serif" font-size="12" fill="#555" text-anchor="start">Village</text><text id="balance" x="282" y="406" font-family="Arial, sans-serif" font-size="12" fill="#555" text-anchor="end">+4</text></svg>
