<svg xmlns="http://www.w3.org/2000/svg" width="300" height="423" viewBox="0 0 300 423">
  <rect x="0" y="0" width="300" height="423" fill="#ffffff" rx="15" ry="15" />
  <rect x="10" y="10" width="280" height="403" fill="none" stroke="#4a3b2a" stroke-width="3" rx="10" ry="10" />

  <text x="150" y="50" font-family="Georgia, serif" font-size="24" font-weight="bold" fill="#800000" text-anchor="middle" id="role">Simple Loup-Garou</text>
  <text x="150" y="70" font-family="Arial, sans-serif" font-size="12" font-style="italic" fill="#555" text-anchor="middle" id="origine">Loups-Garous de Thiercelieux</text>

  <g transform="translate(100, 120)">
    <circle cx="50" cy="50" r="45" fill="#333" stroke="#000" stroke-width="2" />
    <path d="M30 40 L45 45 L30 50 Z" fill="#c00" />
    <path d="M70 40 L55 45 L70 50 Z" fill="#c00" />
    <path d="M40 70 L60 70 L50 85 Z" fill="#999" />
    <path d="M35 60 L40 75 L45 60 Z" fill="#fff" />
    <path d="M65 60 L60 75 L55 60 Z" fill="#fff" />
  </g>

  <text x="150" y="270" font-family="Georgia, serif" font-size="13" fill="#333" text-anchor="middle" id="descText">
    <tspan x="150" dy="0" font-weight="bold">But : <tspan font-weight="normal">Tuer tous les villageois.</tspan></tspan>
    <tspan x="150" dy="24">Chaque nuit, il se réveille avec</tspan>
    <tspan x="150" dy="17">ses compères pour dévorer une</tspan>
    <tspan x="150" dy="17">victime. Le jour, il se fait passer</tspan>
    <tspan x="150" dy="17">pour un innocent villageois.</tspan>
  </text>
<text id="campTypique" x="18" y="406" font-family="Arial, sans-serif" font-size="12" fill="#555" text-anchor="start">Loup</text><text id="balance" x="282" y="406" font-family="Arial, sans-serif" font-size="12" fill="#555" text-anchor="end">-6</text></svg>
